<svg width="152" height="153" viewBox="0 0 152 153" fill="none" xmlns="http://www.w3.org/2000/svg">
<path d="M80.2564 80.2527L75.6644 89.2167H51.1172C51.166 88.7445 51.3175 87.6144 51.5324 86.8719C51.7474 86.1294 57.484 79.577 60.3255 76.3935L69.0452 71.4597L84.0422 69.9453L89.5623 71.4597L80.2564 80.2527Z" fill="#06E2A7"/>
<path opacity="0.34" d="M74.0256 89.1914H51.1148L50.553 91.5606L50.2656 106.191H74.0256V89.1914Z" fill="#06E2A7"/>
<path opacity="0.1" d="M78.7646 118.452L91.4168 126.83L80.2545 128.344L64.598 124.998L53.9487 115.765L50.8711 106.215H73.562L76.5663 107.973L78.7646 118.452Z" fill="#06E2A7"/>
<path d="M56.8337 28.8179C56.8337 28.8179 76.9799 22.8643 89.1716 25.4635C101.363 28.0627 101.834 40.2446 85.2385 44.266C68.6428 48.2874 48.2318 53.1916 33.9019 58.5665C19.5719 63.9415 14.5795 73.534 17.267 83.6463C19.9545 93.7587 36.7168 98.1038 41.6994 98.6138" stroke="#013A2F" stroke-width="3.41952" stroke-miterlimit="10"/>
<path d="M114.114 121.35C109.867 125.557 104.404 128.088 98.4403 128.088C84.9441 128.088 74.0078 115.131 74.0078 99.1435C74.0078 83.156 84.9441 70.1992 98.4403 70.1992C105.581 70.1992 112.005 73.8283 116.468 79.6152" stroke="#013A2F" stroke-width="3.41952" stroke-miterlimit="10"/>
<path d="M95.751 70.209H78.0175C62.1673 70.209 49.3086 83.0578 49.3086 98.9179C49.3086 114.768 62.1575 127.627 78.0175 127.627H95.751" stroke="#013A2F" stroke-width="3.41952" stroke-miterlimit="10" stroke-linecap="round"/>
<path d="M83.8555 92.1113H111.448C111.718 92.1113 111.937 92.33 111.937 92.5998V108.326C111.937 108.596 111.718 108.815 111.448 108.815H83.8555" stroke="#013A2F" stroke-width="3.41952" stroke-miterlimit="10"/>
<path d="M108.414 83.4805H134.094C134.364 83.4805 134.583 83.6992 134.583 83.969V99.6857C134.583 99.9555 134.364 100.174 134.094 100.174H117.183" stroke="#013A2F" stroke-width="3.41952" stroke-miterlimit="10"/>
<path d="M118.655 107.727H127.325C129.748 107.727 131.71 109.688 131.71 112.111C131.71 114.534 129.748 116.495 127.325 116.495H100.559" stroke="#013A2F" stroke-width="3.41952" stroke-miterlimit="10"/>
<path d="M126.423 93.9639C127.604 93.9639 128.562 93.0066 128.562 91.8257C128.562 90.6448 127.604 89.6875 126.423 89.6875C125.242 89.6875 124.285 90.6448 124.285 91.8257C124.285 93.0066 125.242 93.9639 126.423 93.9639Z" fill="#013A2F"/>
<path d="M104.099 102.312C105.28 102.312 106.237 101.354 106.237 100.173C106.237 98.9925 105.28 98.0352 104.099 98.0352C102.918 98.0352 101.961 98.9925 101.961 100.173C101.961 101.354 102.918 102.312 104.099 102.312Z" fill="#013A2F"/>
</svg>
